<svg xmlns="http://www.w3.org/2000/svg" width="36.514" height="36.514" viewBox="0 0 36.514 36.514">
  <path id="Icon_ionic-ios-checkmark-circle" data-name="Icon ionic-ios-checkmark-circle" d="M21.632,3.375A18.257,18.257,0,1,0,39.889,21.632,18.254,18.254,0,0,0,21.632,3.375Zm9.348,13.21L19.244,28.373h-.009a1.585,1.585,0,0,1-1.018.483,1.537,1.537,0,0,1-1.027-.5L12.275,23.44a.35.35,0,0,1,0-.5l1.562-1.562a.339.339,0,0,1,.492,0l3.9,3.9L28.935,14.487a.347.347,0,0,1,.246-.105h0a.319.319,0,0,1,.246.105l1.536,1.589A.346.346,0,0,1,30.98,16.585Z" transform="translate(-3.375 -3.375)" fill="#30c67d"/>
</svg>
