<?xml version="1.0" standalone="no"?>
<!DOCTYPE svg PUBLIC "-//W3C//DTD SVG 20010904//EN"
 "http://www.w3.org/TR/2001/REC-SVG-20010904/DTD/svg10.dtd">
<svg version="1.0" xmlns="http://www.w3.org/2000/svg"
 width="157.000000pt" height="157.000000pt" viewBox="0 0 157.000000 157.000000"
 preserveAspectRatio="xMidYMid meet">
<metadata>
Created by potrace 1.16, written by Peter Selinger 2001-2019
</metadata>
<g transform="translate(0.000000,157.000000) scale(0.100000,-0.100000)"
fill="#000000" stroke="none">
<path d="M565 1546 c-191 -53 -367 -189 -464 -360 -78 -137 -100 -228 -100
-406 0 -71 6 -149 13 -180 70 -287 286 -507 570 -581 100 -26 303 -26 408 1
274 69 494 295 564 580 17 71 17 287 0 365 -32 142 -100 267 -201 371 -105
107 -213 171 -355 211 -118 32 -317 32 -435 -1z m372 -327 c185 -63 305 -234
305 -432 0 -261 -196 -457 -456 -457 -154 0 -279 63 -371 186 -104 139 -117
361 -29 501 59 93 145 166 237 200 95 34 217 35 314 2z"/>
<path d="M644 917 c-2 -7 -3 -71 -2 -143 l3 -129 140 0 140 0 0 140 0 140
-138 3 c-107 2 -139 0 -143 -11z"/>
</g>
</svg>
